<?xml version="1.0" encoding="UTF-8"?>
<!DOCTYPE svg PUBLIC "-//W3C//DTD SVG 1.1//EN" "http://www.w3.org/Graphics/SVG/1.1/DTD/svg11.dtd">
<!-- Creator: CorelDRAW 2021 (64-Bit) -->
<svg xmlns="http://www.w3.org/2000/svg" xml:space="preserve" width="210mm" height="70mm" version="1.1" style="shape-rendering:geometricPrecision; text-rendering:geometricPrecision; image-rendering:optimizeQuality; fill-rule:evenodd; clip-rule:evenodd"
viewBox="0 0 5248.34 1749.45"
 xmlns:xlink="http://www.w3.org/1999/xlink"
 xmlns:xodm="http://www.corel.com/coreldraw/odm/2003">
 <defs>
  <style type="text/css">
   <![CDATA[
    .fil2 {fill:none;fill-rule:nonzero}
    .fil1 {fill:#FF7A00}
    .fil0 {fill:#FF7A00;fill-rule:nonzero}
   ]]>
  </style>
 </defs>
 <g id="Layer_x0020_1">
  <metadata id="CorelCorpID_0Corel-Layer"/>
  <path class="fil0" d="M2517.18 646.08l0 665.99c0,115.81 45.84,167.99 190.58,167.99 60.62,0 120.23,-16.44 155.91,-28.83l0 268.4c-60.67,19.87 -153.35,29.82 -229.29,29.82 -304.21,0 -448.42,-148.64 -448.42,-405.58l0 -1343.87 331.22 0 0 427.42 346.48 0 0 218.71 -346.48 0 0 -0.04z"/>
  <path class="fil1" d="M2975.76 1045.82c0,-397.36 255.05,-668.05 663.22,-668.05 436.1,0 652.24,312.59 629.42,765.88l-952.36 0c17.24,232.55 128.32,350.48 325.06,350.48 166.31,0 254.57,-78.81 292.61,-190.26l323.57 0c-62.88,273.24 -283.12,445.57 -618.25,445.57 -413.8,0 -663.27,-268.13 -663.27,-670.6l0 -33.07 0 0.05zm660.71 -407.63c-181.53,0 -290.01,95.46 -320.44,285.25l619.69 -5.02c-17.81,-177.06 -115.17,-280.24 -299.25,-280.24l0 0z"/>
  <path class="fil0" d="M161.64 160.83c-0.1,2.74 -0.1,6.01 -0.1,12.54l0 24.32c0,6.53 0,9.79 0.1,12.54 3.13,81.84 73.91,147.5 162.12,150.43 2.98,0.09 6.5,0.09 13.58,0.09 7.03,0 10.54,0 13.48,-0.09 88.26,-2.93 159.09,-68.59 162.17,-150.43 0.14,-2.74 0.14,-6.01 0.14,-12.54l0 -24.32c0,-6.53 0,-9.79 -0.14,-12.54 -3.08,-81.84 -73.91,-147.55 -162.12,-150.43 -2.98,-0.09 -6.5,-0.09 -13.53,-0.09 -7.08,0 -10.59,0 -13.58,0.09 -88.21,2.89 -158.99,68.59 -162.12,150.43z"/>
  <path class="fil0" d="M1521.01 412.15c-213.02,0 -344.46,123.66 -410.24,245.28l-15.26 -205.26 -315.86 0 0 1291.58 331.17 0 0 -725.9c0,-214.25 115.66,-345.37 290.44,-345.37 174.78,0 239.5,113.63 239.5,310.32l0 760.96 331.18 0 0 -831.02c0.53,-288.33 -126.88,-500.58 -450.93,-500.58zm-1521.01 40.02l0 220.02 224.09 0 0 1071.56 331.32 0 0 -1291.58 -555.41 0z"/>
  <path class="fil2" d="M161.54 163.55l0 24.32c0,6.53 0,9.79 0.1,12.54 3.13,81.84 73.91,147.5 162.12,150.43 2.98,0.09 6.5,0.09 13.58,0.09 7.03,0 10.54,0 13.48,-0.09 88.26,-2.93 159.09,-68.59 162.17,-150.43 0.14,-2.74 0.14,-6.01 0.14,-12.54l0 -24.32c0,-6.53 0,-9.79 -0.14,-12.54 -3.08,-81.84 -73.91,-147.55 -162.12,-150.43 -2.98,-0.09 -6.5,-0.09 -13.53,-0.09 -7.08,0 -10.59,0 -13.58,0.09 -88.21,2.89 -158.99,68.59 -162.12,150.43"/>
  <path class="fil0" d="M4784.66 657.43c84.07,-161.69 255.77,-245.28 384.72,-245.28 22.92,0 59.08,2.98 78.97,7.47l0 252.85c-0.72,-0 -1.82,-0 -2.55,-0 -0.73,0 -1.83,0 -2.56,0 -235.41,0 -367.38,139.17 -367.38,375.46l0 700.83 -422.45 0 0 -1296.59 321.01 0 10.21 205.26 0.05 0z"/>
 </g>
</svg>
